<svg xmlns="http://www.w3.org/2000/svg" version="1.1" xmlns:xlink="http://www.w3.org/1999/xlink" xmlns:svgjs="http://svgjs.dev/svgjs" width="1000" height="1000" viewBox="0 0 1000 1000"><rect width="1000" height="1000" fill="#ffffff"></rect><g transform="matrix(0.7,0,0,0.7,149.57605563665675,387.05995781847184)"><svg viewBox="0 0 396 128" data-background-color="#ffffff" preserveAspectRatio="xMidYMid meet" height="323" width="1000" xmlns="http://www.w3.org/2000/svg" xmlns:xlink="http://www.w3.org/1999/xlink"><g id="tight-bounds" transform="matrix(1,0,0,1,0.24008861730862918,-0.06224945052807129)"><svg viewBox="0 0 395.52 128.12449890105617" height="128.12449890105617" width="395.52"><g><svg viewBox="0 0 395.52 128.12449890105617" height="128.12449890105617" width="395.52"><g><svg viewBox="0 0 395.52 128.12449890105617" height="128.12449890105617" width="395.52"><g><svg viewBox="0 0 395.52 128.12449890105617" height="128.12449890105617" width="395.52"><g><svg viewBox="0 0 395.52 96.89807220576765" height="96.89807220576765" width="395.52"><path d="M394.594 20.783C392.735 10.725 387.435 7.929 387.435 7.929 371.165-2.431 350.86-0.198 332.619 1.29 300.414 1.351 268.339 3.564 236.208 4.75 168.767 4.931 100.749 1.954 33.643 9.297 27.339 11.55-6.54 9.739 1.121 22.07 3.129 27.2 10.456 32.893 10.232 37.6 11.236 38.424 12.631 36.534 13.226 37.72 15.309 40.919 18.711 39.41 21.501 41.301 17.614 46.35 20.403 50.554 23.062 54.96 18.377 56.106 12.371 55.563 9.675 59.365 9.396 62.121 7.89 61.598 6.235 61.477 5.026 61.397 2.59 61.699 2.999 62.564 4.394 65.521-1.594 67.231 2.162 70.127-0.422 73.265 3.948 75.981 3.353 79.381 3.278 80.065 3.687 80.648 4.338 80.809 7.22 81.674 3.018 83.364 3.464 85.194 33.029 97.706 65.104 89.056 95.394 94.81 103.259 90.786 97.346 96.238 100.489 95.393 102.943 94.407 104.728 98.491 107.499 96.177 107.927 95.514 107.276 93.945 108.8 94.246 109.6 94.407 110.307 94.367 110.418 93.442 110.586 92.054 109.117 92.919 108.726 92.194 112.947 88.533 111.906 97.244 115.866 96.882 115.68 95.815 114.528 94.287 116.889 94.488 119.232 92.959 119.306 91.692 121.389 95.131 121.463 95.876 121.835 96.399 122.43 96.761 128.938 93.019 135.409 98.088 142.233 96.399 146.417 94.548 150.433 97.405 154.672 96.7 156.16 96.137 157.666 95.131 159.098 96.821 176.632 97.183 195.319 95.675 211.943 96.882 256.364 94.629 303.835 97.807 350.674 94.83 361.719 93.683 373.192 92.054 383.958 90.746 383.958 90.746 392.679 87.165 392.679 71.073S394.538 56.992 394.817 44.178C395.096 31.364 396.398 30.841 394.538 20.783Z" opacity="1" fill="#ed1703" data-fill-palette-color="tertiary"></path><g transform="matrix(1,0,0,1,55.76832,26.068561146666667)"><svg width="283.98335999999995" viewBox="1.9500000476837158 -35.5 228.37001037597656 36" height="44.76094991243431" data-palette-color="#ffffff"><path d="M12.7-7.9L10.8-7.9 8.25-15.6Q8.1-16.05 7.78-17.25 7.45-18.45 7.03-20.05 6.6-21.65 6.13-23.33 5.65-25 5.28-26.45 4.9-27.9 4.67-28.78 4.45-29.65 4.45-29.65L4.45-29.65 6.2-35 10.7-20.8Q11-19.95 11.28-18.98 11.55-18 11.75-17.2 11.95-16.4 12.08-15.9 12.2-15.4 12.2-15.4L12.2-15.4Q12.2-15.4 12.3-15.9 12.4-16.4 12.63-17.2 12.85-18 13.08-18.93 13.3-19.85 13.6-20.7L13.6-20.7 17.65-34.1 19.7-29.5Q19.7-29.5 19.48-28.63 19.25-27.75 18.88-26.35 18.5-24.95 18.05-23.28 17.6-21.6 17.15-20.05 16.7-18.5 16.38-17.3 16.05-16.1 15.85-15.6L15.85-15.6 13.25-8.3Q13.15-7.9 12.7-7.9L12.7-7.9ZM1.95 0L1.95 0 1.95-34.1Q1.95-34.75 2.23-34.88 2.5-35 2.85-35L2.85-35 6.2-35 6.45-27.55 5.25-26.1Q5.25-26.1 5.33-25.48 5.4-24.85 5.53-23.73 5.65-22.6 5.78-21.13 5.9-19.65 6.03-18.03 6.15-16.4 6.25-14.7 6.35-13 6.35-11.45L6.35-11.45 6.45-0.9Q6.45-0.45 6.23-0.28 6-0.1 5.05-0.05 4.1 0 1.95 0ZM17.6 0L17.6 0 17.8-11.3Q17.85-12.85 17.95-14.55 18.05-16.25 18.18-17.93 18.3-19.6 18.43-21.13 18.55-22.65 18.65-23.8 18.75-24.95 18.82-25.63 18.9-26.3 18.9-26.3L18.9-26.3 17.65-27.35 17.65-34.1Q17.8-34.55 17.95-34.77 18.1-35 18.55-35L18.55-35Q20.4-35 21.18-35 21.95-35 22.13-35 22.3-35 22.3-35L22.3-35 22.3-0.9Q22.3-0.45 22.1-0.28 21.9-0.1 20.93-0.05 19.95 0 17.6 0ZM37.5 0L25.75 0 25.75-34.1Q25.75-34.1 25.87-34.55 26-35 26.6-35L26.6-35 38.6-35Q38.6-33.15 38.57-32.3 38.55-31.45 38.37-31.18 38.2-30.9 37.75-30.9L37.75-30.9 30.3-30.9 30.3-4.1 38.35-4.1Q38.35-2.2 38.3-1.33 38.25-0.45 38.1-0.23 37.95 0 37.5 0L37.5 0ZM36.5-16.9L26.25-16.9 26.25-21.1 37.35-21.1Q37.35-18.5 37.25-17.7 37.15-16.9 36.5-16.9L36.5-16.9ZM46.55 0L46.55 0 46.55-34.4Q46.55-34.4 46.67-34.48 46.8-34.55 47.45-34.55L47.45-34.55 50.25-34.55Q50.9-34.55 51-34.48 51.09-34.4 51.09-34.4L51.09-34.4 51.09-0.85Q51.09-0.45 50.9-0.28 50.7-0.1 49.75-0.05 48.8 0 46.55 0ZM57-30.7L40-30.7 40-34.1Q40-35 40.84-35L40.84-35 57.84-35 57.84-31.6Q57.84-31.1 57.67-30.9 57.5-30.7 57-30.7L57-30.7ZM58.44 0.1L58.44 0.1Q58.04 0.1 57.22 0.05 56.39 0 55.59-0.1L55.59-0.1 64.34-34.3Q64.49-35.15 66.09-35.15L66.09-35.15Q66.69-35.15 67.27-35.1 67.84-35.05 68.24-34.95L68.24-34.95 76.99-0.8Q77.09-0.35 76.72-0.13 76.34 0.1 74.99 0.1L74.99 0.1Q74.54 0.1 73.87 0.08 73.19 0.05 72.29 0L72.29 0 67.94-19Q67.64-20.6 67.29-22.3 66.94-24 66.72-25.65 66.49-27.3 66.34-28.6L66.34-28.6Q66.24-27.3 65.97-25.65 65.69-24 65.39-22.3 65.09-20.6 64.74-19L64.74-19 60.59-0.8Q60.49-0.35 60.17-0.13 59.84 0.1 58.44 0.1ZM72.64-8.55L60.89-8.55 60.89-12.7 72.64-12.7 72.64-8.55ZM93.14 0L86.79 0 86.79-34.05Q86.79-34.5 87.09-34.75 87.39-35 88.14-35L88.14-35 93.04-35Q95.49-35 97.34-34.27 99.19-33.55 100.39-31.8 101.59-30.05 102.19-26.98 102.79-23.9 102.79-19.3L102.79-19.3Q102.79-13.95 102.16-10.25 101.54-6.55 100.34-4.3 99.14-2.05 97.34-1.03 95.54 0 93.14 0L93.14 0ZM91.39-30.8L91.39-4.35 93.24-4.35Q94.09-4.35 94.86-4.88 95.64-5.4 96.24-6.98 96.84-8.55 97.21-11.63 97.59-14.7 97.59-19.75L97.59-19.75Q97.59-23.2 97.29-25.35 96.99-27.5 96.46-28.7 95.94-29.9 95.11-30.35 94.29-30.8 93.24-30.8L93.24-30.8 91.39-30.8ZM114.69 0.5L114.69 0.5Q111.69 0.5 109.89-0.33 108.09-1.15 107.19-2.6 106.29-4.05 105.99-5.95 105.69-7.85 105.69-10L105.69-10 105.69-34.1Q105.69-34.55 105.89-34.73 106.09-34.9 107.06-34.95 108.04-35 110.39-35L110.39-35 110.39-9.85Q110.39-8.45 110.54-7.33 110.69-6.2 111.14-5.38 111.59-4.55 112.44-4.13 113.29-3.7 114.69-3.7L114.69-3.7Q115.84-3.7 116.89-3.95 117.94-4.2 118.54-4.5L118.54-4.5 118.54-34.1Q118.54-34.55 118.76-34.73 118.99-34.9 119.94-34.95 120.89-35 123.19-35L123.19-35 123.19-1.35Q122.29-0.75 119.99-0.13 117.69 0.5 114.69 0.5ZM137.33-7.9L135.43-7.9 132.88-15.6Q132.73-16.05 132.41-17.25 132.08-18.45 131.66-20.05 131.23-21.65 130.76-23.33 130.28-25 129.91-26.45 129.53-27.9 129.31-28.78 129.08-29.65 129.08-29.65L129.08-29.65 130.83-35 135.33-20.8Q135.63-19.95 135.91-18.98 136.18-18 136.38-17.2 136.58-16.4 136.71-15.9 136.83-15.4 136.83-15.4L136.83-15.4Q136.83-15.4 136.93-15.9 137.03-16.4 137.26-17.2 137.48-18 137.71-18.93 137.93-19.85 138.23-20.7L138.23-20.7 142.28-34.1 144.33-29.5Q144.33-29.5 144.11-28.63 143.88-27.75 143.51-26.35 143.13-24.95 142.68-23.28 142.23-21.6 141.78-20.05 141.33-18.5 141.01-17.3 140.68-16.1 140.48-15.6L140.48-15.6 137.88-8.3Q137.78-7.9 137.33-7.9L137.33-7.9ZM126.58 0L126.58 0 126.58-34.1Q126.58-34.75 126.86-34.88 127.13-35 127.48-35L127.48-35 130.83-35 131.08-27.55 129.88-26.1Q129.88-26.1 129.96-25.48 130.03-24.85 130.16-23.73 130.28-22.6 130.41-21.13 130.53-19.65 130.66-18.03 130.78-16.4 130.88-14.7 130.98-13 130.98-11.45L130.98-11.45 131.08-0.9Q131.08-0.45 130.86-0.28 130.63-0.1 129.68-0.05 128.73 0 126.58 0ZM142.23 0L142.23 0 142.43-11.3Q142.48-12.85 142.58-14.55 142.68-16.25 142.81-17.93 142.93-19.6 143.06-21.13 143.18-22.65 143.28-23.8 143.38-24.95 143.46-25.63 143.53-26.3 143.53-26.3L143.53-26.3 142.28-27.35 142.28-34.1Q142.43-34.55 142.58-34.77 142.73-35 143.18-35L143.18-35Q145.03-35 145.81-35 146.58-35 146.76-35 146.93-35 146.93-35L146.93-35 146.93-0.9Q146.93-0.45 146.73-0.28 146.53-0.1 145.56-0.05 144.58 0 142.23 0ZM156.68-13.95L152.28-13.95Q151.48-13.95 151.41-14.23 151.33-14.5 151.33-15.15L151.33-15.15 151.33-34.05Q151.33-34.15 151.38-34.58 151.43-35 152.03-35L152.03-35 156.58-35Q159.73-35 161.83-34.02 163.93-33.05 164.96-30.85 165.98-28.65 165.98-25L165.98-25Q165.98-21.8 165.21-19.68 164.43-17.55 163.13-16.3 161.83-15.05 160.18-14.5 158.53-13.95 156.68-13.95L156.68-13.95ZM150.83 0L150.83 0 150.83-34.1Q150.83-34.6 151.01-34.8 151.18-35 151.73-35L151.73-35 154.53-35Q155.18-35 155.28-34.55 155.38-34.1 155.38-34.1L155.38-34.1 155.38-0.9Q155.38-0.45 155.18-0.28 154.98-0.1 154.06-0.05 153.13 0 150.83 0ZM155.33-31L155.33-18.2 157.18-18.2Q158.38-18.2 159.18-18.88 159.98-19.55 160.43-21.15 160.88-22.75 160.88-25.5L160.88-25.5Q160.88-27.25 160.56-28.48 160.23-29.7 159.51-30.35 158.78-31 157.48-31L157.48-31 155.33-31ZM180.48 0L168.68 0 168.68-33.75Q168.68-34.4 168.88-34.65 169.08-34.9 170.05-34.95 171.03-35 173.28-35L173.28-35 173.28-4.3 181.33-4.3 181.33-0.9Q181.33-0.35 181.1-0.18 180.88 0 180.48 0L180.48 0ZM184.13 0L184.13 0 184.13-32.95Q184.13-34 184.33-34.43 184.53-34.85 185.5-34.93 186.48-35 188.78-35L188.78-35 188.78-0.9Q188.78-0.45 188.58-0.28 188.38-0.1 187.4-0.05 186.43 0 184.13 0ZM209.87 0L206.37 0 200.82-13.65Q200.47-14.55 199.97-16.05 199.47-17.55 198.9-19.35 198.32-21.15 197.82-22.95 197.32-24.75 196.87-26.25 196.42-27.75 196.17-28.65 195.92-29.55 195.92-29.55L195.92-29.55 193.27-32.3 193.57-35 197.07-35 202.57-21.6Q202.97-20.6 203.5-19.05 204.02-17.5 204.57-15.73 205.12-13.95 205.62-12.23 206.12-10.5 206.55-9.05 206.97-7.6 207.22-6.73 207.47-5.85 207.47-5.85L207.47-5.85 210.27-2.7 209.87 0ZM192.67 0L192.67 0 192.67-34.1Q192.67-35 193.57-35L193.57-35 197.22-34.1 196.57-27.4Q196.72-26.6 196.8-25.4 196.87-24.2 196.95-22.8 197.02-21.4 197.07-19.95 197.12-18.5 197.15-17.15 197.17-15.8 197.2-14.7 197.22-13.6 197.22-12.95L197.22-12.95 197.22-0.9Q197.22-0.45 197.02-0.28 196.82-0.1 195.9-0.05 194.97 0 192.67 0ZM209.87 0L209.87 0 206.17-0.9 206.77-8.55Q206.62-9.4 206.55-10.58 206.47-11.75 206.42-13.08 206.37-14.4 206.32-15.75 206.27-17.1 206.25-18.35 206.22-19.6 206.2-20.65 206.17-21.7 206.17-22.4L206.17-22.4 206.17-34.1Q206.17-34.55 206.37-34.73 206.57-34.9 207.55-34.95 208.52-35 210.72-35L210.72-35 210.72-0.9Q210.72 0 209.87 0ZM223.42 0.5L223.42 0.5Q220.82 0.5 219.02-0.25 217.22-1 216.1-2.85 214.97-4.7 214.5-8.05 214.02-11.4 214.02-16.55L214.02-16.55Q214.02-22.5 214.77-26.23 215.52-29.95 216.9-31.98 218.27-34 220.3-34.75 222.32-35.5 224.82-35.5L224.82-35.5Q227.37-35.5 228.8-34.7 230.22-33.9 230.22-32.8L230.22-32.8Q230.22-32.05 230.02-31.28 229.82-30.5 229.62-29.9L229.62-29.9Q228.97-30.4 227.95-30.7 226.92-31 225.77-31L225.77-31Q223.87-31 222.55-30.28 221.22-29.55 220.42-27.95 219.62-26.35 219.27-23.63 218.92-20.9 218.92-16.9L218.92-16.9Q218.92-12.7 219.2-10.13 219.47-7.55 220.05-6.23 220.62-4.9 221.52-4.45 222.42-4 223.52-4L223.52-4Q224.32-4 224.82-4.17 225.32-4.35 225.62-4.58 225.92-4.8 226.02-4.95L226.02-4.95 226.02-16.95 222.82-16.95 222.82-19.9Q222.82-20.75 223.82-20.75L223.82-20.75 230.32-20.75 230.27-1.5Q229.67-1.05 228.67-0.58 227.67-0.1 226.4 0.2 225.12 0.5 223.42 0.5Z" opacity="1" transform="matrix(1,0,0,1,0,0)" fill="#ffffff" class="undefined-text-0" data-fill-palette-color="quaternary" id="text-0"></path></svg></g></svg></g><g transform="matrix(1,0,0,1,75.54432,107.46505821729549)"><svg viewBox="0 0 244.43135999999998 20.659440683760685" height="20.659440683760685" width="244.43135999999998"><g transform="matrix(1,0,0,1,0,0)"><svg width="244.43135999999998" viewBox="0.45000001788139343 -33.29999923706055 526.4400024414062 44.5" height="20.659440683760685" data-palette-color="#ed1703"><path d="M14.9-0.5L14.9-0.5 15.15-0.5 15.15 0 8.05 0 8.05-0.5 8.3-0.5Q8.7-0.5 9-0.8 9.3-1.1 9.53-1.5 9.75-1.9 9.85-2.38 9.95-2.85 9.95-3.25L9.95-3.25 9.95-31.15 4.15-31.15Q3.35-31.15 2.75-30.8 2.15-30.45 1.75-29.93 1.35-29.4 1.15-28.78 0.95-28.15 0.95-27.55L0.95-27.55 0.45-27.55 0.45-33 22.9-33 22.9-27.55 22.4-27.55Q22.4-28.15 22.2-28.78 22-29.4 21.6-29.93 21.2-30.45 20.6-30.8 20-31.15 19.2-31.15L19.2-31.15 13.3-31.15 13.3-3.25Q13.3-2.85 13.4-2.38 13.5-1.9 13.73-1.5 13.95-1.1 14.23-0.8 14.5-0.5 14.9-0.5ZM45.75-12.9L45.75-3.25Q45.75-2.85 45.85-2.38 45.95-1.9 46.17-1.5 46.4-1.1 46.67-0.8 46.95-0.5 47.35-0.5L47.35-0.5 47.35 0 40.9 0 40.9-0.5Q41.25-0.5 41.55-0.8 41.85-1.1 42.07-1.5 42.3-1.9 42.4-2.38 42.5-2.85 42.5-3.25L42.5-3.25 42.5-12.55Q42.5-14.35 42-15.7 41.5-17.05 40.65-17.95 39.8-18.85 38.72-19.28 37.65-19.7 36.55-19.7L36.55-19.7Q35.45-19.7 34.37-19.28 33.3-18.85 32.47-18.1 31.65-17.35 31.12-16.28 30.6-15.2 30.6-13.9L30.6-13.9 30.6-3.25Q30.6-2.85 30.7-2.38 30.8-1.9 31.02-1.5 31.25-1.1 31.52-0.8 31.8-0.5 32.2-0.5L32.2-0.5 32.2 0 25.7 0 25.7-0.5Q26.05-0.5 26.35-0.8 26.65-1.1 26.87-1.5 27.1-1.9 27.2-2.38 27.3-2.85 27.3-3.25L27.3-3.25 27.3-28.8Q27.3-29.65 27.05-30.4 26.8-31.15 25.6-31.2L25.6-31.2 25.6-31.7 30.6-33.25 30.6-18.8Q30.95-19.2 31.5-19.68 32.05-20.15 32.82-20.58 33.6-21 34.62-21.28 35.65-21.55 37.05-21.55L37.05-21.55Q39.4-21.55 41.05-20.75 42.7-19.95 43.75-18.68 44.8-17.4 45.27-15.88 45.75-14.35 45.75-12.9L45.75-12.9ZM72.34-10.1L55-10.1Q55.2-8.35 55.85-6.78 56.5-5.2 57.57-4 58.65-2.8 60.2-2.08 61.75-1.35 63.8-1.35L63.8-1.35Q64.9-1.35 66.12-1.68 67.34-2 68.4-2.6 69.45-3.2 70.27-4.08 71.09-4.95 71.4-6.05L71.4-6.05 71.84-6.05 71.84-2.3Q71.55-2.3 71.17-2.1 70.8-1.9 70.3-1.6L70.3-1.6Q69.3-1 67.59-0.33 65.9 0.35 63.1 0.35L63.1 0.35Q60.85 0.35 58.82-0.3 56.8-0.95 55.25-2.3 53.7-3.65 52.77-5.75 51.85-7.85 51.85-10.75L51.85-10.75Q51.85-12.6 52.47-14.5 53.1-16.4 54.37-17.93 55.65-19.45 57.65-20.4 59.65-21.35 62.45-21.35L62.45-21.35Q64.95-21.35 66.82-20.5 68.7-19.65 69.92-18.15 71.15-16.65 71.75-14.6 72.34-12.55 72.34-10.1L72.34-10.1ZM62.25-19.7L62.25-19.7Q60.5-19.7 59.22-19 57.95-18.3 57.05-17.2 56.15-16.1 55.65-14.7 55.15-13.3 55-11.9L55-11.9 69.25-11.9Q69.2-13.35 68.72-14.75 68.25-16.15 67.4-17.25 66.55-18.35 65.25-19.03 63.95-19.7 62.25-19.7ZM116.39 0L116.39-0.5 116.64-0.5Q116.99-0.5 117.29-0.8 117.59-1.1 117.82-1.5 118.04-1.9 118.14-2.38 118.24-2.85 118.24-3.25L118.24-3.25 118.24-29.55 105.34 0.55 93.09-28 93.09-3.25Q93.09-2.85 93.19-2.38 93.29-1.9 93.52-1.5 93.74-1.1 94.04-0.8 94.34-0.5 94.74-0.5L94.74-0.5 94.99-0.5 94.99 0 89.54 0 89.54-0.5 89.79-0.5Q90.14-0.5 90.44-0.8 90.74-1.1 90.94-1.5 91.14-1.9 91.24-2.38 91.34-2.85 91.34-3.25L91.34-3.25 91.34-29.9Q91.34-30.25 91.24-30.7 91.14-31.15 90.94-31.55 90.74-31.95 90.44-32.23 90.14-32.5 89.79-32.5L89.79-32.5 89.54-32.5 89.54-33 94.64-33 106.24-5.65 117.84-33 123.49-33 123.49-32.5 123.24-32.5Q122.84-32.5 122.54-32.23 122.24-31.95 122.02-31.55 121.79-31.15 121.69-30.7 121.59-30.25 121.59-29.9L121.59-29.9 121.59-3.25Q121.59-2.85 121.69-2.38 121.79-1.9 122.02-1.5 122.24-1.1 122.54-0.8 122.84-0.5 123.24-0.5L123.24-0.5 123.49-0.5 123.49 0 116.39 0ZM146.39 0L141.54 0 141.54-2.55 141.29-2.3Q140.04-1.05 138.41-0.35 136.79 0.35 134.49 0.35L134.49 0.35Q132.74 0.35 131.49-0.05 130.24-0.45 129.44-1.18 128.64-1.9 128.26-2.85 127.89-3.8 127.89-4.85L127.89-4.85Q127.89-6.55 128.81-7.85 129.74-9.15 131.49-10.15 133.24-11.15 135.76-11.98 138.29-12.8 141.54-13.6L141.54-13.6Q141.44-15.55 140.74-16.75 140.04-17.95 139.09-18.63 138.14-19.3 137.09-19.53 136.04-19.75 135.29-19.75L135.29-19.75Q133.99-19.75 133.01-19.35 132.04-18.95 131.31-18.32 130.59-17.7 130.09-16.98 129.59-16.25 129.29-15.6L129.29-15.6 128.84-15.6 128.84-19.25Q129.24-19.3 129.59-19.5 129.94-19.7 130.44-19.9L130.44-19.9Q131.19-20.2 132.49-20.78 133.79-21.35 136.14-21.35L136.14-21.35Q138.89-21.35 140.59-20.65 142.29-19.95 143.21-18.8 144.14-17.65 144.44-16.18 144.74-14.7 144.74-13.15L144.74-13.15 144.74-3.25Q144.74-2.25 145.19-1.38 145.64-0.5 146.39-0.5L146.39-0.5 146.39 0ZM140.99-4.15L141.54-4.75 141.54-11.9 141.04-11.8Q139.84-11.5 138.11-11 136.39-10.5 134.84-9.7 133.29-8.9 132.19-7.8 131.09-6.7 131.09-5.25L131.09-5.25Q131.09-3.65 132.39-2.6 133.69-1.55 135.79-1.55L135.79-1.55Q137.44-1.55 138.69-2.27 139.94-3 140.99-4.15L140.99-4.15ZM164.88-20.4L163.38-17.35Q162.78-18.35 162.13-18.6 161.49-18.85 160.63-18.85L160.63-18.85Q160.09-18.85 159.46-18.6 158.84-18.35 158.24-17.95 157.63-17.55 157.06-17.07 156.49-16.6 156.09-16.2L156.09-16.2 156.09-3.2Q156.09-2.8 156.19-2.35 156.28-1.9 156.51-1.48 156.74-1.05 157.01-0.78 157.28-0.5 157.69-0.5L157.69-0.5 157.69 0 151.19 0 151.19-0.5Q151.53-0.5 151.84-0.78 152.13-1.05 152.36-1.48 152.59-1.9 152.69-2.35 152.78-2.8 152.78-3.2L152.78-3.2 152.78-17.15Q152.78-17.85 152.34-18.55 151.88-19.25 151.03-19.45L151.03-19.45 151.03-19.85 156.09-21.35 156.09-18.35Q156.53-18.9 157.03-19.43 157.53-19.95 158.16-20.38 158.78-20.8 159.53-21.08 160.28-21.35 161.28-21.35L161.28-21.35Q161.99-21.35 163.09-21.05 164.19-20.75 164.88-20.4L164.88-20.4ZM183.33-21L188.23-21 188.23-20.5Q187.88-20.5 187.53-20.25 187.18-20 186.86-19.6 186.53-19.2 186.26-18.73 185.98-18.25 185.78-17.85L185.78-17.85 177.18 0.85 168.63-18.05Q168.28-18.85 167.73-19.68 167.18-20.5 166.33-20.5L166.33-20.5 166.33-21 173.18-21 173.18-20.5Q172.88-20.5 172.41-20.2 171.93-19.9 171.93-19.35L171.93-19.35Q171.93-19.1 172.33-18.2L172.33-18.2 178.08-5.25 184.28-18.75Q184.48-19.25 184.48-19.5L184.48-19.5Q184.48-19.95 184.06-20.23 183.63-20.5 183.33-20.5L183.33-20.5 183.33-21ZM211.43-10.1L194.08-10.1Q194.28-8.35 194.93-6.78 195.58-5.2 196.66-4 197.73-2.8 199.28-2.08 200.83-1.35 202.88-1.35L202.88-1.35Q203.98-1.35 205.21-1.68 206.43-2 207.48-2.6 208.53-3.2 209.36-4.08 210.18-4.95 210.48-6.05L210.48-6.05 210.93-6.05 210.93-2.3Q210.63-2.3 210.26-2.1 209.88-1.9 209.38-1.6L209.38-1.6Q208.38-1 206.68-0.33 204.98 0.35 202.18 0.35L202.18 0.35Q199.93 0.35 197.91-0.3 195.88-0.95 194.33-2.3 192.78-3.65 191.86-5.75 190.93-7.85 190.93-10.75L190.93-10.75Q190.93-12.6 191.56-14.5 192.18-16.4 193.46-17.93 194.73-19.45 196.73-20.4 198.73-21.35 201.53-21.35L201.53-21.35Q204.03-21.35 205.91-20.5 207.78-19.65 209.01-18.15 210.23-16.65 210.83-14.6 211.43-12.55 211.43-10.1L211.43-10.1ZM201.33-19.7L201.33-19.7Q199.58-19.7 198.31-19 197.03-18.3 196.13-17.2 195.23-16.1 194.73-14.7 194.23-13.3 194.08-11.9L194.08-11.9 208.33-11.9Q208.28-13.35 207.81-14.75 207.33-16.15 206.48-17.25 205.63-18.35 204.33-19.03 203.03-19.7 201.33-19.7ZM222.33 0L215.78 0 215.78-0.5Q216.18-0.5 216.48-0.8 216.78-1.1 217-1.5 217.23-1.9 217.33-2.38 217.43-2.85 217.43-3.25L217.43-3.25 217.43-28.85Q217.43-29.7 217.18-30.45 216.93-31.2 215.68-31.25L215.68-31.25 215.68-31.75 220.73-33.3 220.73-3.25Q220.73-2.85 220.83-2.38 220.93-1.9 221.15-1.5 221.38-1.1 221.65-0.8 221.93-0.5 222.33-0.5L222.33-0.5 222.33 0ZM243.38-5.7L243.38-5.7Q243.38-4.4 242.73-3.3 242.08-2.2 240.95-1.38 239.83-0.55 238.33-0.08 236.83 0.4 235.08 0.4L235.08 0.4Q232.93 0.4 231.58-0.18 230.23-0.75 229.28-1.35L229.28-1.35Q228.63-1.75 228.08-2.02 227.53-2.3 226.88-2.3L226.88-2.3 226.88-6.1 227.38-6.1Q227.53-5.4 228.25-4.58 228.98-3.75 230-3.05 231.03-2.35 232.25-1.88 233.48-1.4 234.73-1.4L234.73-1.4Q235.63-1.4 236.58-1.6 237.53-1.8 238.3-2.25 239.08-2.7 239.6-3.38 240.13-4.05 240.13-5L240.13-5Q240.13-5.95 239.58-6.65 239.03-7.35 238.18-7.88 237.33-8.4 236.23-8.8 235.13-9.2 234.03-9.55L234.03-9.55Q232.73-9.95 231.4-10.45 230.08-10.95 229.03-11.63 227.98-12.3 227.33-13.28 226.68-14.25 226.68-15.6L226.68-15.6Q226.68-16.75 227.1-17.8 227.53-18.85 228.5-19.63 229.48-20.4 231.03-20.88 232.58-21.35 234.78-21.35L234.78-21.35Q236.73-21.35 237.8-21.03 238.88-20.7 239.58-20.35L239.58-20.35Q240.03-20.1 240.48-19.98 240.93-19.85 241.48-19.85L241.48-19.85 241.48-16.35 241.08-16.35Q240.18-18 238.33-18.85 236.48-19.7 234.53-19.7L234.53-19.7Q233.28-19.7 232.38-19.38 231.48-19.05 230.9-18.57 230.33-18.1 230.05-17.5 229.78-16.9 229.78-16.3L229.78-16.3Q229.78-15.45 230.25-14.85 230.73-14.25 231.55-13.8 232.38-13.35 233.4-12.95 234.43-12.55 235.58-12.2L235.58-12.2Q236.98-11.75 238.38-11.23 239.78-10.7 240.88-9.95 241.98-9.2 242.68-8.18 243.38-7.15 243.38-5.7ZM271.17 0.35L271.17 0.35Q268.67 0.35 266.67-0.48 264.67-1.3 263.25-2.73 261.82-4.15 261.05-6.1 260.27-8.05 260.27-10.35L260.27-10.35Q260.27-12.8 261.12-14.83 261.97-16.85 263.47-18.3 264.97-19.75 267.02-20.55 269.07-21.35 271.47-21.35L271.47-21.35Q273.87-21.35 275.87-20.58 277.87-19.8 279.32-18.4 280.77-17 281.57-15.08 282.37-13.15 282.37-10.85L282.37-10.85Q282.37-8.7 281.65-6.68 280.92-4.65 279.5-3.1 278.07-1.55 276-0.6 273.92 0.35 271.17 0.35ZM270.87-19.7L270.87-19.7Q269.07-19.6 267.69-18.82 266.32-18.05 265.4-16.82 264.47-15.6 264-14.05 263.52-12.5 263.52-10.9L263.52-10.9Q263.52-9.05 264.1-7.33 264.67-5.6 265.75-4.25 266.82-2.9 268.32-2.1 269.82-1.3 271.67-1.3L271.67-1.3Q273.52-1.3 274.94-2.1 276.37-2.9 277.32-4.17 278.27-5.45 278.75-7.05 279.22-8.65 279.22-10.25L279.22-10.25Q279.22-11.9 278.72-13.58 278.22-15.25 277.17-16.63 276.12-18 274.55-18.85 272.97-19.7 270.87-19.7ZM297.12-19.3L291.47-19.3 291.47-3.25Q291.47-2.85 291.57-2.38 291.67-1.9 291.89-1.5 292.12-1.1 292.39-0.8 292.67-0.5 293.07-0.5L293.07-0.5 293.07 0 286.57 0 286.57-0.5Q286.92-0.5 287.22-0.8 287.52-1.1 287.74-1.5 287.97-1.9 288.07-2.38 288.17-2.85 288.17-3.25L288.17-3.25 288.17-19.3 285.67-19.3 285.67-21 288.17-21 288.17-25.05Q288.17-26.6 288.27-28.05 288.37-29.5 288.87-30.65 289.37-31.8 290.39-32.5 291.42-33.2 293.22-33.2L293.22-33.2Q294.22-33.2 294.94-32.98 295.67-32.75 296.19-32.48 296.72-32.2 297.07-31.98 297.42-31.75 297.67-31.75L297.67-31.75 297.67-28.1 297.22-28.1Q296.97-29.55 295.92-30.53 294.87-31.5 293.82-31.5L293.82-31.5Q292.37-31.5 291.92-29.98 291.47-28.45 291.47-25.75L291.47-25.75 291.47-21 297.12-21 297.12-19.3ZM313.76 0L313.76-0.5 314.01-0.5Q314.36-0.5 314.66-0.8 314.96-1.1 315.19-1.5 315.41-1.9 315.51-2.38 315.61-2.85 315.61-3.25L315.61-3.25 315.61-29.9Q315.61-30.25 315.51-30.7 315.41-31.15 315.21-31.55 315.01-31.95 314.71-32.23 314.41-32.5 314.01-32.5L314.01-32.5 313.76-32.5 313.76-33 323.41-33Q327.36-33 330.51-31.63 333.66-30.25 335.84-27.93 338.01-25.6 339.16-22.6 340.31-19.6 340.31-16.35L340.31-16.35Q340.31-13.3 339.21-10.38 338.11-7.45 335.91-5.15 333.71-2.85 330.41-1.43 327.11 0 322.76 0L322.76 0 313.76 0ZM336.91-15.6L336.91-15.6Q336.91-18.8 335.76-21.65 334.61-24.5 332.54-26.63 330.46-28.75 327.64-30 324.81-31.25 321.51-31.25L321.51-31.25 318.96-31.25 318.96-1.75 321.61-1.75Q324.31-1.75 327.04-2.58 329.76-3.4 331.96-5.13 334.16-6.85 335.54-9.45 336.91-12.05 336.91-15.6ZM364.41-21.55L364.41-3.25Q364.41-2.9 364.51-2.43 364.61-1.95 364.79-1.53 364.96-1.1 365.26-0.8 365.56-0.5 365.96-0.5L365.96-0.5 365.96 0 361.11 0 361.11-2.75Q360.36-1.65 358.91-0.6 357.46 0.45 355.16 0.45L355.16 0.45Q352.26 0.45 350.56-0.55 348.86-1.55 347.96-3.1 347.06-4.65 346.81-6.48 346.56-8.3 346.56-9.9L346.56-9.9 346.56-17.05Q346.56-17.5 346.54-17.93 346.51-18.35 346.34-18.7 346.16-19.05 345.81-19.28 345.46-19.5 344.81-19.5L344.81-19.5 344.81-19.95 349.86-21.55 349.86-8.8Q349.86-5 351.51-3.2 353.16-1.4 355.56-1.4L355.56-1.4Q356.86-1.4 357.88-1.98 358.91-2.55 359.63-3.35 360.36-4.15 360.74-5 361.11-5.85 361.11-6.4L361.11-6.4 361.11-17.05Q361.11-17.5 361.09-17.93 361.06-18.35 360.88-18.7 360.71-19.05 360.36-19.28 360.01-19.5 359.36-19.5L359.36-19.5 359.36-19.95 364.41-21.55ZM402.81-12.6L402.81-3.25Q402.81-2.85 402.91-2.38 403.01-1.9 403.21-1.5 403.41-1.1 403.68-0.8 403.96-0.5 404.36-0.5L404.36-0.5 404.36 0 397.86 0 397.86-0.5Q398.26-0.5 398.56-0.8 398.86-1.1 399.08-1.5 399.31-1.9 399.41-2.38 399.51-2.85 399.51-3.25L399.51-3.25 399.51-14.05Q399.51-15.2 399.18-16.25 398.86-17.3 398.21-18.07 397.56-18.85 396.61-19.33 395.66-19.8 394.46-19.8L394.46-19.8Q393.11-19.8 392.13-19.18 391.16-18.55 390.53-17.65 389.91-16.75 389.61-15.83 389.31-14.9 389.31-14.3L389.31-14.3 389.31-3.25Q389.31-2.85 389.41-2.38 389.51-1.9 389.73-1.5 389.96-1.1 390.23-0.8 390.51-0.5 390.91-0.5L390.91-0.5 390.91 0 384.46 0 384.46-0.5Q384.81-0.5 385.11-0.8 385.41-1.1 385.63-1.5 385.86-1.9 385.96-2.38 386.06-2.85 386.06-3.25L386.06-3.25 386.06-14.35Q386.06-15.55 385.63-16.57 385.21-17.6 384.48-18.3 383.76-19 382.83-19.4 381.91-19.8 380.96-19.8L380.96-19.8Q379.66-19.8 378.68-19.3 377.71-18.8 377.08-18.05 376.46-17.3 376.13-16.43 375.81-15.55 375.81-14.75L375.81-14.75 375.81-3.25Q375.81-2.85 375.91-2.38 376.01-1.9 376.23-1.5 376.46-1.1 376.73-0.8 377.01-0.5 377.41-0.5L377.41-0.5 377.41 0 370.96 0 370.96-0.5Q371.31-0.5 371.61-0.8 371.91-1.1 372.13-1.5 372.36-1.9 372.46-2.38 372.56-2.85 372.56-3.25L372.56-3.25 372.56-16.6Q372.56-17 372.51-17.5 372.46-18 372.31-18.45 372.16-18.9 371.81-19.2 371.46-19.5 370.86-19.5L370.86-19.5 370.86-19.95 375.81-21.6 375.81-19.05Q376.56-19.9 377.88-20.7 379.21-21.5 381.36-21.5L381.36-21.5Q382.76-21.5 383.86-21.1 384.96-20.7 385.78-20.08 386.61-19.45 387.21-18.65 387.81-17.85 388.21-17.1L388.21-17.1Q388.61-17.85 389.16-18.63 389.71-19.4 390.48-20.05 391.26-20.7 392.33-21.1 393.41-21.5 394.86-21.5L394.86-21.5Q397.66-21.5 399.26-20.5 400.86-19.5 401.63-18.1 402.41-16.7 402.61-15.18 402.81-13.65 402.81-12.6L402.81-12.6ZM420.1-21.35L420.1-21.35Q422.81-21.35 424.78-20.43 426.75-19.5 428.08-18 429.4-16.5 430.06-14.55 430.7-12.6 430.7-10.55L430.7-10.55Q430.7-8.55 430.08-6.6 429.45-4.65 428.18-3.1 426.9-1.55 425-0.6 423.1 0.35 420.5 0.35L420.5 0.35Q418.95 0.35 417.33-0.48 415.7-1.3 414.4-2.55L414.4-2.55 414.4 7.25Q414.4 7.65 414.5 8.13 414.6 8.6 414.83 9 415.06 9.4 415.33 9.7 415.6 10 416 10L416 10 416 10.5 409.5 10.5 409.5 10Q409.85 10 410.15 9.7 410.45 9.4 410.68 9 410.9 8.6 411 8.13 411.1 7.65 411.1 7.25L411.1 7.25 411.1-18.05Q411.1-18.5 411.08-18.93 411.06-19.35 410.9-19.68 410.75-20 410.43-20.23 410.1-20.45 409.5-20.5L409.5-20.5 409.5-21 414.4-21 414.4-18.8Q415.4-20 416.83-20.68 418.25-21.35 420.1-21.35ZM420.56-1.35L420.56-1.35Q422.31-1.4 423.6-2.15 424.9-2.9 425.75-4.1 426.6-5.3 427-6.78 427.4-8.25 427.4-9.85L427.4-9.85Q427.4-11.65 426.9-13.4 426.4-15.15 425.45-16.53 424.5-17.9 423.13-18.78 421.75-19.65 420-19.65L420-19.65Q418.95-19.65 417.93-19.25 416.9-18.85 416.13-18.1 415.35-17.35 414.88-16.32 414.4-15.3 414.4-14.05L414.4-14.05 414.4-7.5Q414.4-6.15 414.95-5.03 415.5-3.9 416.38-3.08 417.25-2.25 418.35-1.8 419.45-1.35 420.56-1.35ZM441.95 0L435.4 0 435.4-0.5Q435.8-0.5 436.1-0.8 436.4-1.1 436.63-1.5 436.85-1.9 436.95-2.38 437.05-2.85 437.05-3.25L437.05-3.25 437.05-28.85Q437.05-29.7 436.8-30.45 436.55-31.2 435.3-31.25L435.3-31.25 435.3-31.75 440.35-33.3 440.35-3.25Q440.35-2.85 440.45-2.38 440.55-1.9 440.78-1.5 441-1.1 441.28-0.8 441.55-0.5 441.95-0.5L441.95-0.5 441.95 0ZM453.95 0L447.45 0 447.45-0.5Q447.85-0.5 448.15-0.8 448.45-1.1 448.65-1.5 448.85-1.9 448.95-2.38 449.05-2.85 449.05-3.25L449.05-3.25 449.05-17.1Q449.05-17.95 448.8-18.73 448.55-19.5 447.35-19.55L447.35-19.55 447.35-20 452.35-21.6 452.35-3.25Q452.35-2.85 452.45-2.38 452.55-1.9 452.75-1.5 452.95-1.1 453.25-0.8 453.55-0.5 453.95-0.5L453.95-0.5 453.95 0ZM447.7-26.4L447.7-26.4Q447.7-27.4 448.38-28.1 449.05-28.8 450.05-28.8L450.05-28.8Q451.05-28.8 451.75-28.1 452.45-27.4 452.45-26.4L452.45-26.4Q452.45-25.4 451.75-24.75 451.05-24.1 450.05-24.1L450.05-24.1Q449.05-24.1 448.38-24.75 447.7-25.4 447.7-26.4ZM479.4-12.9L479.4-3.25Q479.4-2.85 479.5-2.38 479.6-1.9 479.82-1.5 480.05-1.1 480.32-0.8 480.6-0.5 481-0.5L481-0.5 481 0 474.55 0 474.55-0.5Q474.9-0.5 475.2-0.8 475.5-1.1 475.72-1.5 475.95-1.9 476.05-2.38 476.15-2.85 476.15-3.25L476.15-3.25 476.15-12.55Q476.15-14.35 475.65-15.7 475.15-17.05 474.3-17.95 473.45-18.85 472.37-19.28 471.3-19.7 470.2-19.7L470.2-19.7Q469.1-19.7 468.02-19.25 466.95-18.8 466.12-18.07 465.3-17.35 464.77-16.38 464.25-15.4 464.25-14.35L464.25-14.35 464.25-3.25Q464.25-2.85 464.35-2.38 464.45-1.9 464.67-1.5 464.9-1.1 465.17-0.8 465.45-0.5 465.85-0.5L465.85-0.5 465.85 0 459.35 0 459.35-0.5Q459.7-0.5 460-0.8 460.3-1.1 460.52-1.5 460.75-1.9 460.85-2.38 460.95-2.85 460.95-3.25L460.95-3.25 460.95-17.05Q460.95-17.9 460.7-18.68 460.45-19.45 459.25-19.5L459.25-19.5 459.25-19.95 464.25-21.55 464.25-18.8Q464.6-19.2 465.15-19.68 465.7-20.15 466.47-20.58 467.25-21 468.27-21.28 469.3-21.55 470.7-21.55L470.7-21.55Q473.05-21.55 474.7-20.75 476.35-19.95 477.4-18.68 478.45-17.4 478.92-15.88 479.4-14.35 479.4-12.9L479.4-12.9ZM496.3 9.3L496.3 9.3Q497.8 9.3 499.15 9.03 500.5 8.75 501.52 8.25 502.55 7.75 503.15 7.05 503.75 6.35 503.75 5.55L503.75 5.55Q503.75 4.7 502.92 4.1 502.1 3.5 500.7 3.05 499.3 2.6 497.45 2.27 495.6 1.95 493.6 1.6L493.6 1.6 491.05 1.15Q489.9 2.05 489.45 3.05 489 4.05 489 4.8L489 4.8Q489 5.85 489.57 6.68 490.15 7.5 491.12 8.1 492.1 8.7 493.42 9 494.75 9.3 496.3 9.3ZM492.8-1.7L499.05-0.7Q501.05-0.4 502.37 0.1 503.7 0.6 504.5 1.28 505.3 1.95 505.6 2.78 505.9 3.6 505.9 4.55L505.9 4.55Q505.9 6.25 504.97 7.5 504.05 8.75 502.57 9.58 501.1 10.4 499.22 10.8 497.35 11.2 495.4 11.2L495.4 11.2Q493.5 11.2 491.75 10.83 490 10.45 488.65 9.7 487.3 8.95 486.5 7.83 485.7 6.7 485.7 5.25L485.7 5.25Q485.7 3.95 486.5 2.78 487.3 1.6 489.1 0.45L489.1 0.45Q487.35-0.45 486.42-1.98 485.5-3.5 485.5-5.1L485.5-5.1Q485.5-6.05 485.95-6.98 486.4-7.9 487.4-8.7L487.4-8.7Q486.55-9.7 486.2-10.7 485.85-11.7 485.85-12.85L485.85-12.85Q485.85-14.65 486.6-16.2 487.35-17.75 488.65-18.9 489.95-20.05 491.7-20.7 493.45-21.35 495.45-21.35L495.45-21.35Q497.55-21.35 499.45-20.63 501.35-19.9 502.65-18.75L502.65-18.75 506.25-18.75 506.25-16.95 503.95-16.95Q504.3-16.2 504.65-15.18 505-14.15 505-13.05L505-13.05Q505-11.45 504.25-10.03 503.5-8.6 502.17-7.53 500.85-6.45 499.07-5.83 497.3-5.2 495.3-5.2L495.3-5.2Q493.45-5.2 491.7-5.75 489.95-6.3 488.6-7.35L488.6-7.35Q488.05-7 487.85-6.48 487.65-5.95 487.65-5.4L487.65-5.4Q487.65-3.8 489.1-2.93 490.55-2.05 492.8-1.7L492.8-1.7ZM494.85-19.6L494.85-19.6Q493.65-19.6 492.6-19.18 491.55-18.75 490.75-18 489.95-17.25 489.47-16.18 489-15.1 489-13.75L489-13.75Q489-12.1 489.67-10.8 490.35-9.5 491.4-8.65 492.45-7.8 493.72-7.35 495-6.9 496.15-6.9L496.15-6.9Q497.4-6.9 498.42-7.38 499.45-7.85 500.2-8.68 500.95-9.5 501.35-10.6 501.75-11.7 501.75-12.9L501.75-12.9Q501.75-14.4 501.15-15.65 500.55-16.9 499.57-17.78 498.6-18.65 497.35-19.13 496.1-19.6 494.85-19.6ZM526.89-5.7L526.89-5.7Q526.89-4.4 526.24-3.3 525.59-2.2 524.47-1.38 523.34-0.55 521.84-0.08 520.34 0.4 518.59 0.4L518.59 0.4Q516.44 0.4 515.09-0.18 513.74-0.75 512.79-1.35L512.79-1.35Q512.14-1.75 511.59-2.02 511.04-2.3 510.39-2.3L510.39-2.3 510.39-6.1 510.89-6.1Q511.04-5.4 511.77-4.58 512.49-3.75 513.52-3.05 514.54-2.35 515.77-1.88 516.99-1.4 518.24-1.4L518.24-1.4Q519.14-1.4 520.09-1.6 521.04-1.8 521.82-2.25 522.59-2.7 523.12-3.38 523.64-4.05 523.64-5L523.64-5Q523.64-5.95 523.09-6.65 522.54-7.35 521.69-7.88 520.84-8.4 519.74-8.8 518.64-9.2 517.54-9.55L517.54-9.55Q516.24-9.95 514.92-10.45 513.59-10.95 512.54-11.63 511.49-12.3 510.84-13.28 510.19-14.25 510.19-15.6L510.19-15.6Q510.19-16.75 510.62-17.8 511.04-18.85 512.02-19.63 512.99-20.4 514.54-20.88 516.09-21.35 518.29-21.35L518.29-21.35Q520.24-21.35 521.32-21.03 522.39-20.7 523.09-20.35L523.09-20.35Q523.54-20.1 523.99-19.98 524.44-19.85 524.99-19.85L524.99-19.85 524.99-16.35 524.59-16.35Q523.69-18 521.84-18.85 519.99-19.7 518.04-19.7L518.04-19.7Q516.79-19.7 515.89-19.38 514.99-19.05 514.42-18.57 513.84-18.1 513.57-17.5 513.29-16.9 513.29-16.3L513.29-16.3Q513.29-15.45 513.77-14.85 514.24-14.25 515.07-13.8 515.89-13.35 516.92-12.95 517.94-12.55 519.09-12.2L519.09-12.2Q520.49-11.75 521.89-11.23 523.29-10.7 524.39-9.95 525.49-9.2 526.19-8.18 526.89-7.15 526.89-5.7Z" opacity="1" transform="matrix(1,0,0,1,0,0)" fill="#ed1703" class="undefined-text-1" data-fill-palette-color="secondary" id="text-1"></path></svg></g></svg></g></svg></g></svg></g><g></g></svg></g><defs></defs></svg><rect width="395.52" height="128.12449890105617" fill="none" stroke="none" visibility="hidden"></rect></g></svg></g></svg>