<svg xmlns="http://www.w3.org/2000/svg" version="1.1" xmlns:xlink="http://www.w3.org/1999/xlink" xmlns:svgjs="http://svgjs.dev/svgjs" width="1000" height="1000" viewBox="0 0 1000 1000"><rect width="1000" height="1000" fill="#ffffff"></rect><g transform="matrix(0.7,0,0,0.7,150.4417195072586,80.6897975708502)"><svg viewBox="0 0 206 247" data-background-color="#0a1627" preserveAspectRatio="xMidYMid meet" height="1199" width="1000" xmlns="http://www.w3.org/2000/svg" xmlns:xlink="http://www.w3.org/1999/xlink"><g id="tight-bounds" transform="matrix(1,0,0,1,-0.12999167040558746,-0.09999999999999432)"><svg viewBox="0 0 206.25998341111318 247.2" height="247.2" width="206.25998341111318"><g><svg viewBox="0 0 395.52 474.02575324134375" height="247.2" width="206.25998341111318"><g transform="matrix(1,0,0,1,0,288.2811928410579)"><svg viewBox="0 0 395.52 185.7445604002859" height="185.7445604002859" width="395.52"><g><svg viewBox="0 0 395.52 185.7445604002859" height="185.7445604002859" width="395.52"><g><svg viewBox="0 0 395.52 185.7445604002859" height="185.7445604002859" width="395.52"><g transform="matrix(1,0,0,1,0,0)"><svg width="395.52" viewBox="1.850000023841858 -32.45000076293945 69.95000457763672 32.85000228881836" height="185.7445604002859" data-palette-color="#fe0039"><path d="M35.2-32.25L37.95 0 30.8 0 30.4-9.8 29.5-20.4 29-20.4 22.6-3.25 16.4-3.25 10.8-20.4 10.25-20.4 9.25-10.55 8.6 0 1.85 0 5.05-32.25 14.4-32.25 15.55-27.55 19.7-13.75 20.2-13.75 24.7-27.4 26-32.25 35.2-32.25ZM57.2-32.45Q64.3-32.45 68.05-28.58 71.8-24.7 71.8-17.4L71.8-17.4Q71.8-8.8 67.5-4.2 63.2 0.4 55.2 0.4L55.2 0.4Q50.6 0.4 43.6 0L43.6 0 43.55 0 44-9.55 43.55-32.25 43.6-32.25 57.2-32.45ZM56.7-5.75Q63.35-5.75 63.35-15.45L63.35-15.45Q63.35-21.15 61.75-23.6 60.15-26.05 56.55-26.05L56.55-26.05Q53.9-26.05 51.7-25.85L51.7-25.85 51.4-10.35 51.5-6.15Q54.45-5.75 56.7-5.75L56.7-5.75Z" opacity="1" transform="matrix(1,0,0,1,0,0)" fill="#000000" class="undefined-text-0" data-fill-palette-color="primary" id="text-0"></path></svg></g></svg></g></svg></g></svg></g><g transform="matrix(1,0,0,1,75.54432,0)"><svg viewBox="0 0 244.43135999999998 244.43135999999998" height="244.43135999999998" width="244.43135999999998"><g><svg></svg></g><g id="icon-0"><svg viewBox="0 0 244.43135999999998 244.43135999999998" height="244.43135999999998" width="244.43135999999998"><g><path xmlns="http://www.w3.org/2000/svg" d="M73.329 244.431c-40.499 0-73.329-32.831-73.329-73.329v-97.773c0-40.499 32.831-73.329 73.329-73.329h97.773c40.499 0 73.329 32.831 73.329 73.329v97.773c0 40.499-32.831 73.329-73.329 73.329z" fill="#000000" fill-rule="nonzero" stroke="none" stroke-width="1" stroke-linecap="butt" stroke-linejoin="miter" stroke-miterlimit="10" stroke-dasharray="" stroke-dashoffset="0" font-family="none" font-weight="none" font-size="none" text-anchor="none" style="mix-blend-mode: normal" data-fill-palette-color="accent"></path></g><g transform="matrix(1,0,0,1,84.3288192,86.85460992)"><svg viewBox="0 0 75.77372159999999 70.72214015999998" height="70.72214015999998" width="75.77372159999999"><g><svg xmlns="http://www.w3.org/2000/svg" xmlns:xlink="http://www.w3.org/1999/xlink" version="1.1" x="0" y="0" viewBox="-29 -26 90 84" enable-background="new -34 -35 100 100" xml:space="preserve" height="70.72214015999998" width="75.77372159999999" class="icon-a-0" data-fill-palette-color="quaternary" id="a-0"><g fill="#0a1627" data-fill-palette-color="quaternary"><g fill="#0a1627" data-fill-palette-color="quaternary"><g fill="#0a1627" data-fill-palette-color="quaternary"><path d="M31-19.4v-4.3c0-1-0.3-2.3-3.3-2.3-1 0-2.3 0-4 0.3-2 0.3-4.7 0.7-7.7 0.7s-5.3-0.3-7.7-0.7c-1.7-0.3-3-0.3-4-0.3-3 0-3.3 1.7-3.3 2.3v4.3c-24.3 9.7-30 42-30 55.7 0 6 8 21.7 45 21.7s45-15.7 45-21.7C61 22.6 55.3-9.8 31-19.4zM8-22.8c2.3 0.3 5 0.7 8 0.7s5.7-0.3 8-0.7c1 0 2-0.3 3-0.3-0.7 0.7-1.3 1-2.3 1.7-1 0.7-2.3 1.3-3.7 1.7h-0.3c-0.7 0-1 0.3-1.7 0.3-0.3 0-0.3 0-0.7 0-0.7 0-1.7 0.3-2.3 0.3-0.7 0-1.7 0-2.3-0.3-0.3 0-0.3 0-0.7 0-0.7 0-1-0.3-1.7-0.3H11c-1.3-0.3-2.7-1-3.7-1.7l0 0c-1-0.7-1.7-1.3-2.3-1.7C5.7-22.8 7-22.8 8-22.8zM50 46.9c-5.3 3.3-15.3 7.7-34 7.7s-28.7-4-34-7.7c-6-4-7.7-8.7-7.7-10.7 0-0.3 0.7-35.7 22-49.3-7.7 9.3-8.7 22.3-8.7 22.7L-9 9.9c0-1 1.3-21.3 16.7-27H8c0 0 0 0 0 0.3-7 10-6.7 32.3-6.7 33.3h3.3c0-0.3-0.3-24 6.7-32.3 1 0.3 2 0.3 3.3 0.7v38H18v-38.3c1 0 2.3-0.3 3.3-0.7 7 8.3 6.7 32 6.7 32.3h3.3c0-1 0.3-23.7-6.7-33.3 0 0 0 0 0-0.3H25c15.3 5.7 16.7 26 16.7 27L45 9.2c0-0.3-1-13.3-8.7-22.7 21.3 14 22 49 22 49.3C57.7 38.2 56 42.9 50 46.9z" fill="#0a1627" data-fill-palette-color="quaternary"></path></g></g></g></svg></g></svg></g></svg></g></svg></g><g></g></svg></g><defs></defs></svg><rect width="206.25998341111318" height="247.2" fill="none" stroke="none" visibility="hidden"></rect></g></svg></g></svg>